<svg width="140" height="36" fill="none" xmlns="http://www.w3.org/2000/svg"><path d="M114.7 11.832c-.003-1.43-.922-2.334-2.498-2.46a4.922 4.922 0 00-1.461.11c-.995.224-1.54.955-1.856 1.891-.412 1.213-.807 2.425-1.212 3.64-.964 2.9-1.924 5.802-2.884 8.701-.025.081-.061.16-.121.325-.007-.013-.01-.023-.013-.032-.003.013-.01.022-.013.032-.064-.166-.095-.244-.121-.325-.963-2.899-1.923-5.801-2.884-8.7-.401-1.213-.8-2.428-1.212-3.64-.316-.934-.861-1.668-1.856-1.892a5.02 5.02 0 00-1.461-.11c-1.576.126-2.495 1.026-2.498 2.46-.013 5.323-.003 10.647-.01 15.97 0 .258.096.306.323.303.832-.01 1.665-.003 2.5-.003.415 0 .415 0 .415-.426V13.278c.026-.003.051-.003.08-.007.035.088 2.979 8.65 4.428 12.838.146.426.344.845.58 1.226.329.533 1.024.812 1.732.822.708-.006 1.404-.286 1.732-.822.236-.384.431-.8.581-1.226 1.448-4.186 4.392-12.747 4.427-12.838.026.004.051.004.08.007v14.398c0 .426 0 .426.415.426.832 0 1.665-.007 2.501.003.226.003.322-.045.322-.302-.013-5.324-.003-10.648-.016-15.971zM139.986 23.73a7.73 7.73 0 01-.179 1.677c-.319 1.35-1.225 2.13-2.52 2.448a6.843 6.843 0 01-1.579.22c-2.306.014-4.612.01-6.918-.038-.552-.013-1.123-.17-1.646-.367-1.331-.498-1.93-1.57-2.09-2.942a6.987 6.987 0 01-.041-.78c.003-3.52-.003-7.04.022-10.556.003-.491.093-.998.227-1.473.325-1.14 1.116-1.846 2.232-2.11a9.835 9.835 0 012.09-.256c1.933-.032 3.866-.026 5.799-.003.625.006 1.26.068 1.876.188 1.585.312 2.478 1.323 2.66 2.952.048.442.073.887.073 1.332.007 1.596.016 8.07-.006 9.708zm-11.452-.54c0 .251.007.501.026.748.06.764.386 1.148 1.129 1.278.303.055.616.055.925.058 1.251.007 2.501.003 3.751 0 .287 0 .578-.006.865-.032.724-.069 1.049-.38 1.161-1.112.035-.224.045-.455.045-.682.003-3.033.003-6.065 0-9.094 0-.238 0-.481-.026-.715-.099-.849-.443-1.177-1.285-1.239-.087-.006-3.439-.032-5.031-.006-1.202.02-1.531.37-1.544 1.602-.019 1.59-.016 7.716-.016 9.195zM76.7 9.55h3.527v13.618c0 .25 0 .5.029.748.105.874.504 1.264 1.378 1.329.437.032 3.512.026 4.612.016.182 0 .364-.016.54-.055.625-.133.921-.458.998-1.105.035-.312.048-.627.048-.943.003-4.378.003-13.432.003-13.605h3.528s.006 9.585-.01 14.203a7.129 7.129 0 01-.2 1.707c-.332 1.316-1.235 2.077-2.501 2.385a7.146 7.146 0 01-1.614.221c-2.189.013-4.38.01-6.565-.042-.552-.013-1.123-.169-1.646-.364-1.263-.468-1.882-1.469-2.058-2.785a9.628 9.628 0 01-.07-1.138V9.55zM59.55 9.533v2.383c0 .465 0 .465-.443.465-2.392 0-4.785-.004-7.177.003-.32 0-.645.003-.957.058-.734.127-1.05.491-1.123 1.245a6.954 6.954 0 00-.029.683c-.003 2.977-.003 5.95 0 8.928 0 .185.01.37.023.552.06.862.468 1.3 1.32 1.391.306.033.619.036.928.036 2.339.003 7.286 0 7.458 0v2.097c0 .724 0 .724-.698.724-2.562 0-5.126.023-7.688-.013-.781-.01-1.585-.087-2.338-.292-1.522-.41-2.335-1.476-2.485-3.072a10.656 10.656 0 01-.05-1.007c-.004-3.247-.01-6.497.002-9.744.004-.55.051-1.108.15-1.651.246-1.336 1.047-2.2 2.342-2.516a9.15 9.15 0 012.057-.26c2.794-.023 8.708-.01 8.708-.01zM62.274 9.553h3.532c0 .153 0 9.14.003 13.495 0 .315 0 .634.054.942.137.803.533 1.177 1.324 1.262.392.042.788.058 1.183.058 1.965.007 6.15.003 6.323.003 0 .355-.007 2 .003 2.496.003.199-.042.296-.265.293-2.775-.023-5.553-.023-8.329-.062-.45-.006-.909-.123-1.349-.25-1.464-.43-2.204-1.485-2.402-2.974a9.903 9.903 0 01-.07-1.268c-.01-4.527-.007-13.845-.007-13.995zM118.135 9.55h3.477v18.526h-3.477V9.55z" fill="#fff"/><path d="M33.25 11.448a7.487 7.487 0 00-.093-.243c.032.08.06.162.093.243z" fill="url(#paint0_linear)"/><path d="M15.32 2.94c2.166.328 4.258 1.82 5.793 3.197 1.547 1.382 2.654 3.085 3.33 5.009.013.032.022.068.035.1l.038.111c.173.51.313 1.03.415 1.557.029.14.054.28.08.422-.003 0-.003-.003-.007-.003a12.799 12.799 0 01-.427 5.847 12.754 12.754 0 01-2.861 4.937c-1.34 1.437-2.82 2.266-4.524 2.916 2.431.981 5.177 1.157 7.92.322 1.586-.485 3.255-1.457 4.467-2.458 3.38-2.798 5.126-7.956 3.977-12.451-.708-2.63-2.226-5.064-4.197-7.079l-.246-.244c-.083-.08-.17-.159-.252-.237-6.922-6.47-17.666-5.632-23.905.943 2.51-2.311 5.962-3.562 10.364-2.89z" fill="url(#paint1_linear)"/><path d="M24.516 11.354l-.038-.11c.012.038.025.074.038.11z" fill="url(#paint2_linear)"/><path d="M24.516 11.354l-.038-.11c.012.038.025.074.038.11z" fill="url(#paint3_linear)"/><path d="M24.93 12.91c.03.14.052.28.074.417.003 0 .003.003.006.003-.025-.137-.05-.28-.08-.42z" fill="url(#paint4_linear)"/><path d="M24.93 12.91c.03.14.052.28.074.417.003 0 .003.003.006.003-.025-.137-.05-.28-.08-.42z" fill="url(#paint5_linear)"/><path d="M17.068 3.69c1.457.575 3.11 1.563 4.312 2.727a12.371 12.371 0 013.063 4.726c-.677-1.924-1.784-3.628-3.33-5.009-1.535-1.375-3.627-2.866-5.793-3.198-4.402-.67-7.857.582-10.367 2.886-.406.426-.788.878-1.155 1.349 3.1-3.942 8.9-5.197 13.27-3.48z" fill="url(#paint6_linear)"/><path d="M24.93 12.91a13.087 13.087 0 00-.414-1.556l-.038-.11c-.013-.033-.023-.069-.035-.101-.677-1.924-1.784-3.628-3.33-5.009-1.535-1.375-3.627-2.866-5.793-3.198-4.402-.67-7.854.582-10.367 2.886-2.23 2.045-3.72 4.92-4.479 8.018l-.077.342-.07.34c-1.77 8.952 3.844 17.496 11.96 20.038-2.897-1.222-5.363-3.63-6.811-7.563-.769-2.09-.68-4.313-.243-6.348.594-2.795 2.195-5.554 4.396-7.313a12.322 12.322 0 014.922-2.47 12.217 12.217 0 015.627-.055c1.917.43 3.387 1.355 4.826 2.519-.022-.14-.048-.28-.073-.42z" fill="url(#paint7_linear)"/><path d="M3.798 7.171c-.051.068-.105.133-.156.202.054-.065.105-.134.156-.202z" fill="url(#paint8_linear)"/><path d="M3.798 7.171c-.051.068-.105.133-.156.202.054-.065.105-.134.156-.202z" fill="url(#paint9_linear)"/><path d="M29.575 24.894c-1.212 1.001-2.877 1.973-4.466 2.457-2.743.835-5.49.663-7.92-.322l-.051.02c2.631 1.033 5.738 1.134 8.415.27 1.949-.628 3.888-1.655 5.285-3.37 3.114-3.833 3.697-7.86 2.715-11.506 1.148 4.495-.597 9.653-3.978 12.451z" fill="url(#paint10_linear)"/><path d="M15.21 35.194c.084.01.167.023.253.03-.086-.007-.17-.02-.252-.03z" fill="url(#paint11_linear)"/><path d="M15.21 35.194c.084.01.167.023.253.03-.086-.007-.17-.02-.252-.03z" fill="url(#paint12_linear)"/><path d="M33.25 11.448c.118.325.22.657.306.995 1.149 4.495-.596 9.653-3.977 12.451-1.213 1.001-2.878 1.973-4.466 2.457-2.744.835-5.49.663-7.92-.322a12.348 12.348 0 01-4.537-3.198 12.714 12.714 0 01-2.778-4.985c-.565-1.921-.546-3.663-.246-5.513-2.198 1.762-3.799 4.518-4.395 7.313-.437 2.035-.527 4.258.242 6.348 1.448 3.932 3.914 6.34 6.81 7.563 3.005 1.267 6.476 1.264 9.755.364l.329-.098c.111-.032.22-.068.328-.104 9.525-3.084 13.867-14.369 10.549-23.27z" fill="url(#paint13_linear)"/><defs><linearGradient id="paint0_linear" x1="4.902" y1="11.328" x2="34.355" y2="11.328" gradientUnits="userSpaceOnUse"><stop offset=".058" stop-color="#092E8C"/><stop offset="1" stop-color="#1E88E5"/></linearGradient><linearGradient id="paint1_linear" x1="15.347" y1="5.006" x2="33.736" y2="29.608" gradientUnits="userSpaceOnUse"><stop stop-color="#4FC3F7"/><stop offset=".041" stop-color="#49BCF5"/><stop offset=".209" stop-color="#36A5EE"/><stop offset=".389" stop-color="#2995E9"/><stop offset=".59" stop-color="#218BE6"/><stop offset=".852" stop-color="#1E88E5"/></linearGradient><linearGradient id="paint2_linear" x1="18.349" y1="2.762" x2="36.739" y2="27.363" gradientUnits="userSpaceOnUse"><stop stop-color="#4FC3F7"/><stop offset=".041" stop-color="#49BCF5"/><stop offset=".209" stop-color="#36A5EE"/><stop offset=".389" stop-color="#2995E9"/><stop offset=".59" stop-color="#218BE6"/><stop offset=".852" stop-color="#1E88E5"/></linearGradient><linearGradient id="paint3_linear" x1="17.83" y1="33.297" x2="27.88" y2="1.355" gradientUnits="userSpaceOnUse"><stop offset=".053" stop-color="#092E8C"/><stop offset=".196" stop-color="#205FAF"/><stop offset=".341" stop-color="#348ACE"/><stop offset=".472" stop-color="#43A9E4"/><stop offset=".583" stop-color="#4CBCF2"/><stop offset=".661" stop-color="#4FC3F7"/></linearGradient><linearGradient id="paint4_linear" x1="17.803" y1="3.17" x2="36.193" y2="27.771" gradientUnits="userSpaceOnUse"><stop stop-color="#4FC3F7"/><stop offset=".041" stop-color="#49BCF5"/><stop offset=".209" stop-color="#36A5EE"/><stop offset=".389" stop-color="#2995E9"/><stop offset=".59" stop-color="#218BE6"/><stop offset=".852" stop-color="#1E88E5"/></linearGradient><linearGradient id="paint5_linear" x1="18.767" y1="33.593" x2="28.818" y2="1.65" gradientUnits="userSpaceOnUse"><stop offset=".053" stop-color="#092E8C"/><stop offset=".196" stop-color="#205FAF"/><stop offset=".341" stop-color="#348ACE"/><stop offset=".472" stop-color="#43A9E4"/><stop offset=".583" stop-color="#4CBCF2"/><stop offset=".661" stop-color="#4FC3F7"/></linearGradient><linearGradient id="paint6_linear" x1="12.809" y1="6.903" x2="31.198" y2="31.505" gradientUnits="userSpaceOnUse"><stop stop-color="#4FC3F7"/><stop offset=".041" stop-color="#49BCF5"/><stop offset=".209" stop-color="#36A5EE"/><stop offset=".389" stop-color="#2995E9"/><stop offset=".59" stop-color="#218BE6"/><stop offset=".852" stop-color="#1E88E5"/></linearGradient><linearGradient id="paint7_linear" x1="-17.818" y1="114.367" x2="23.51" y2="-16.989" gradientUnits="userSpaceOnUse"><stop offset=".64" stop-color="#092E8C"/><stop offset=".677" stop-color="#205FAF"/><stop offset=".715" stop-color="#348ACE"/><stop offset=".748" stop-color="#43A9E4"/><stop offset=".777" stop-color="#4CBCF2"/><stop offset=".797" stop-color="#4FC3F7"/></linearGradient><linearGradient id="paint8_linear" x1="6.727" y1="11.449" x2="25.117" y2="36.051" gradientUnits="userSpaceOnUse"><stop stop-color="#4FC3F7"/><stop offset=".041" stop-color="#49BCF5"/><stop offset=".209" stop-color="#36A5EE"/><stop offset=".389" stop-color="#2995E9"/><stop offset=".59" stop-color="#218BE6"/><stop offset=".852" stop-color="#1E88E5"/></linearGradient><linearGradient id="paint9_linear" x1="-2.251" y1="26.98" x2="7.799" y2="-4.963" gradientUnits="userSpaceOnUse"><stop offset=".053" stop-color="#092E8C"/><stop offset=".196" stop-color="#205FAF"/><stop offset=".341" stop-color="#348ACE"/><stop offset=".472" stop-color="#43A9E4"/><stop offset=".583" stop-color="#4CBCF2"/><stop offset=".661" stop-color="#4FC3F7"/></linearGradient><linearGradient id="paint10_linear" x1="14.948" y1="5.304" x2="33.337" y2="29.906" gradientUnits="userSpaceOnUse"><stop stop-color="#4FC3F7"/><stop offset=".041" stop-color="#49BCF5"/><stop offset=".209" stop-color="#36A5EE"/><stop offset=".389" stop-color="#2995E9"/><stop offset=".59" stop-color="#218BE6"/><stop offset=".852" stop-color="#1E88E5"/></linearGradient><linearGradient id="paint11_linear" x1="16.082" y1="32.748" x2="26.132" y2=".805" gradientUnits="userSpaceOnUse"><stop offset=".053" stop-color="#092E8C"/><stop offset=".196" stop-color="#205FAF"/><stop offset=".341" stop-color="#348ACE"/><stop offset=".472" stop-color="#43A9E4"/><stop offset=".583" stop-color="#4CBCF2"/><stop offset=".661" stop-color="#4FC3F7"/></linearGradient><linearGradient id="paint12_linear" x1="4.903" y1="35.209" x2="34.355" y2="35.209" gradientUnits="userSpaceOnUse"><stop offset=".058" stop-color="#092E8C"/><stop offset="1" stop-color="#1E88E5"/></linearGradient><linearGradient id="paint13_linear" x1="4.903" y1="23.506" x2="89.054" y2="23.506" gradientUnits="userSpaceOnUse"><stop offset=".058" stop-color="#092E8C"/><stop offset=".379" stop-color="#1E88E5"/></linearGradient></defs></svg>